<?xml version="1.0" encoding="UTF-8" standalone="no"?>
<!-- Created with Inkscape (http://www.inkscape.org/) -->

<svg
   xmlns:dc="http://purl.org/dc/elements/1.1/"
   xmlns:cc="http://creativecommons.org/ns#"
   xmlns:rdf="http://www.w3.org/1999/02/22-rdf-syntax-ns#"
   xmlns:svg="http://www.w3.org/2000/svg"
   xmlns="http://www.w3.org/2000/svg"
   xmlns:sodipodi="http://sodipodi.sourceforge.net/DTD/sodipodi-0.dtd"
   xmlns:inkscape="http://www.inkscape.org/namespaces/inkscape"
   width="210mm"
   height="297mm"
   viewBox="0 0 210 297"
   version="1.1"
   id="svg8"
   inkscape:version="0.92.2 (5c3e80d, 2017-08-06)"
   sodipodi:docname="laserCaliber.svg">
  <defs
     id="defs2">
    <marker
       style="overflow:visible"
       refY="0.0"
       refX="0.0"
       orient="auto"
       id="DistanceX">
      <path
         id="path817"
         style="stroke:#000000; stroke-width:0.5"
         d="M 3,-3 L -3,3 M 0,-5 L  0,5" />
    </marker>
    <pattern
       y="0"
       x="0"
       width="8"
       patternUnits="userSpaceOnUse"
       id="Hatch"
       height="8">
      <path
         id="path820"
         stroke-width="0.25"
         stroke="#000000"
         linecap="square"
         d="M8 4 l-4,4" />
      <path
         id="path822"
         stroke-width="0.25"
         stroke="#000000"
         linecap="square"
         d="M6 2 l-4,4" />
      <path
         id="path824"
         stroke-width="0.25"
         stroke="#000000"
         linecap="square"
         d="M4 0 l-4,4" />
    </pattern>
    <symbol
       id="*Model_Space" />
    <symbol
       id="*Paper_Space" />
    <symbol
       id="*Paper_Space0" />
  </defs>
  <sodipodi:namedview
     id="base"
     pagecolor="#ffffff"
     bordercolor="#666666"
     borderopacity="1.0"
     inkscape:pageopacity="0.0"
     inkscape:pageshadow="2"
     inkscape:zoom="1.979899"
     inkscape:cx="-64.853611"
     inkscape:cy="1048.0521"
     inkscape:document-units="mm"
     inkscape:current-layer="layer1"
     showgrid="false"
     inkscape:window-width="1920"
     inkscape:window-height="1017"
     inkscape:window-x="-8"
     inkscape:window-y="-8"
     inkscape:window-maximized="1" />
  <metadata
     id="metadata5">
    <rdf:RDF>
      <cc:Work
         rdf:about="">
        <dc:format>image/svg+xml</dc:format>
        <dc:type
           rdf:resource="http://purl.org/dc/dcmitype/StillImage" />
        <dc:title></dc:title>
      </cc:Work>
    </rdf:RDF>
  </metadata>
  <g
     inkscape:label="Vrstva 1"
     inkscape:groupmode="layer"
     id="layer1">
    <path
       sodipodi:type="inkscape:offset"
       inkscape:radius="0"
       inkscape:original="M 7.78125 2.0429688 L 7.78125 4.5429688 L 2.78125 4.5429688 L 2.78125 9.5429688 L 7.78125 9.5429688 L 7.78125 12.042969 L 17.78125 12.042969 L 17.78125 9.5429688 L 12.78125 9.5429688 L 12.78125 4.5429688 L 17.78125 4.5429688 L 17.78125 2.0429688 L 7.78125 2.0429688 z M 10.28125 5.5429688 C 11.03125 5.5429688 11.78125 6.0429688 11.78125 7.0429688 C 11.78125 9.0429688 8.78125 9.0429688 8.78125 7.0429688 C 8.78125 6.0429688 9.5312501 5.5429688 10.28125 5.5429688 z "
       style="fill:none;fill-opacity:1;fill-rule:evenodd;stroke:#ff0000;stroke-width:0.02645833;stroke-linecap:round;stroke-miterlimit:4;stroke-dasharray:none;stroke-opacity:1"
       id="path856"
       d="m 7.78125,2.0429688 v 2.5 h -5 v 5 h 5 v 2.5000002 h 10 V 9.5429688 h -5 v -5 h 5 v -2.5 z m 2.5,3.5 c 0.75,0 1.5,0.5 1.5,1.5 0,2 -3,2 -3,0 0,-1 0.7500001,-1.5 1.5,-1.5 z" />
    <path
       transform="translate(-0.12500794,11.595818)"
       sodipodi:type="inkscape:offset"
       inkscape:radius="0.050000001"
       inkscape:original="M 7.78125 2.0429688 L 7.78125 4.5429688 L 2.78125 4.5429688 L 2.78125 9.5429688 L 7.78125 9.5429688 L 7.78125 12.042969 L 17.78125 12.042969 L 17.78125 9.5429688 L 12.78125 9.5429688 L 12.78125 4.5429688 L 17.78125 4.5429688 L 17.78125 2.0429688 L 7.78125 2.0429688 z M 10.28125 5.5429688 C 11.03125 5.5429688 11.78125 6.0429688 11.78125 7.0429688 C 11.78125 9.0429688 8.78125 9.0429688 8.78125 7.0429688 C 8.78125 6.0429688 9.5312501 5.5429688 10.28125 5.5429688 z "
       style="fill:none;fill-opacity:1;fill-rule:evenodd;stroke:#ff0000;stroke-width:0.02645833;stroke-linecap:round;stroke-miterlimit:4;stroke-dasharray:none;stroke-opacity:1"
       id="path856-9"
       d="m 7.78125,2.0429688 v 2.5 h -5 v 5 h 5 v 2.5000002 h 10 V 9.5429688 h -5 v -5 h 5 v -2.5 z m 2.5,3.5 c 0.75,0 1.5,0.5 1.5,1.5 0,2 -3,2 -3,0 0,-1 0.7500001,-1.5 1.5,-1.5 z" />
    <path
       transform="translate(-0.12500797,23.489311)"
       sodipodi:type="inkscape:offset"
       inkscape:radius="0.1"
       inkscape:original="M 7.78125 2.0429688 L 7.78125 4.5429688 L 2.78125 4.5429688 L 2.78125 9.5429688 L 7.78125 9.5429688 L 7.78125 12.042969 L 17.78125 12.042969 L 17.78125 9.5429688 L 12.78125 9.5429688 L 12.78125 4.5429688 L 17.78125 4.5429688 L 17.78125 2.0429688 L 7.78125 2.0429688 z M 10.28125 5.5429688 C 11.03125 5.5429688 11.78125 6.0429688 11.78125 7.0429688 C 11.78125 9.0429688 8.78125 9.0429688 8.78125 7.0429688 C 8.78125 6.0429688 9.5312501 5.5429688 10.28125 5.5429688 z "
       style="fill:none;fill-opacity:1;fill-rule:evenodd;stroke:#ff0000;stroke-width:0.02645833;stroke-linecap:round;stroke-miterlimit:4;stroke-dasharray:none;stroke-opacity:1"
       id="path856-9-6"
       d="m 7.78125,2.0429688 v 2.5 h -5 v 5 h 5 v 2.5000002 h 10 V 9.5429688 h -5 v -5 h 5 v -2.5 z m 2.5,3.5 c 0.75,0 1.5,0.5 1.5,1.5 0,2 -3,2 -3,0 0,-1 0.7500001,-1.5 1.5,-1.5 z" />
    <path
       transform="translate(-0.0581906,35.249171)"
       sodipodi:type="inkscape:offset"
       inkscape:radius="0.15000001"
       inkscape:original="M 7.78125 2.0429688 L 7.78125 4.5429688 L 2.78125 4.5429688 L 2.78125 9.5429688 L 7.78125 9.5429688 L 7.78125 12.042969 L 17.78125 12.042969 L 17.78125 9.5429688 L 12.78125 9.5429688 L 12.78125 4.5429688 L 17.78125 4.5429688 L 17.78125 2.0429688 L 7.78125 2.0429688 z M 10.28125 5.5429688 C 11.03125 5.5429688 11.78125 6.0429688 11.78125 7.0429688 C 11.78125 9.0429688 8.78125 9.0429688 8.78125 7.0429688 C 8.78125 6.0429688 9.5312501 5.5429688 10.28125 5.5429688 z "
       style="fill:none;fill-opacity:1;fill-rule:evenodd;stroke:#ff0000;stroke-width:0.02645833;stroke-linecap:round;stroke-miterlimit:4;stroke-dasharray:none;stroke-opacity:1"
       id="path856-9-6-0"
       d="M 7.78125,1.9121094 A 0.130013,0.130013 0 0 0 7.6503906,2.0429688 V 4.4121094 H 2.78125 A 0.130013,0.130013 0 0 0 2.6503906,4.5429688 v 5 A 0.130013,0.130013 0 0 0 2.78125,9.6738281 H 7.6503906 V 12.042969 A 0.130013,0.130013 0 0 0 7.78125,12.173828 h 10 a 0.130013,0.130013 0 0 0 0.130859,-0.130859 V 9.5429688 A 0.130013,0.130013 0 0 0 17.78125,9.4121094 H 12.912109 V 4.6738281 h 4.869141 a 0.130013,0.130013 0 0 0 0.130859,-0.1308593 v -2.5 A 0.130013,0.130013 0 0 0 17.78125,1.9121094 Z m 2.5,3.7617187 c 0.346111,0 0.690866,0.1156224 0.945312,0.3417969 0.254447,0.2261745 0.423829,0.5598437 0.423829,1.0273438 0,0.4675 -0.169382,0.8011692 -0.423829,1.0273437 C 10.972116,8.296487 10.627361,8.4121094 10.28125,8.4121094 9.9351389,8.4121094 9.5903839,8.296487 9.3359375,8.0703125 9.0814911,7.844138 8.9121094,7.5104688 8.9121094,7.0429688 c 0,-0.4675 0.1693817,-0.8011693 0.4238281,-1.0273438 C 9.5903839,5.7894505 9.9351389,5.6738281 10.28125,5.6738281 Z" />
    <path
       transform="translate(-0.19182498,47.276299)"
       sodipodi:type="inkscape:offset"
       inkscape:radius="0.2"
       inkscape:original="M 7.78125 2.0429688 L 7.78125 4.5429688 L 2.78125 4.5429688 L 2.78125 9.5429688 L 7.78125 9.5429688 L 7.78125 12.042969 L 17.78125 12.042969 L 17.78125 9.5429688 L 12.78125 9.5429688 L 12.78125 4.5429688 L 17.78125 4.5429688 L 17.78125 2.0429688 L 7.78125 2.0429688 z M 10.28125 5.5429688 C 11.03125 5.5429688 11.78125 6.0429688 11.78125 7.0429688 C 11.78125 9.0429688 8.78125 9.0429688 8.78125 7.0429688 C 8.78125 6.0429688 9.5312501 5.5429688 10.28125 5.5429688 z "
       style="fill:none;fill-opacity:1;fill-rule:evenodd;stroke:#ff0000;stroke-width:0.02645833;stroke-linecap:round;stroke-miterlimit:4;stroke-dasharray:none;stroke-opacity:1"
       id="path856-9-6-0-7"
       d="m 7.78125,2.0429688 v 2.5 h -5 v 5 h 5 v 2.5000002 h 10 V 9.5429688 h -5 v -5 h 5 v -2.5 z m 2.5,3.5 c 0.75,0 1.5,0.5 1.5,1.5 0,2 -3,2 -3,0 0,-1 0.7500001,-1.5 1.5,-1.5 z" />
    <flowRoot
       xml:space="preserve"
       id="flowRoot4677"
       style="font-style:normal;font-weight:normal;font-size:5.33333349px;line-height:1.25;font-family:sans-serif;letter-spacing:0px;word-spacing:0px;fill:#000000;fill-opacity:1;stroke:none"
       transform="scale(0.26458333)"><flowRegion
         id="flowRegion4679"><rect
           id="rect4681"
           width="50"
           height="14.642858"
           x="98.214287"
           y="19.66254" /></flowRegion><flowPara
         id="flowPara4683" /></flowRoot>    <flowRoot
       xml:space="preserve"
       id="flowRoot4685"
       style="font-style:normal;font-weight:normal;font-size:5.33333349px;line-height:1.25;font-family:sans-serif;letter-spacing:0px;word-spacing:0px;fill:#000000;fill-opacity:1;stroke:none"
       transform="matrix(0.26458333,0,0,0.26458333,-20.930432,2.5513393)"><flowRegion
         id="flowRegion4687"><rect
           id="rect4689"
           width="33.214287"
           height="30"
           x="94.64286"
           y="14.305398" /></flowRegion><flowPara
         id="flowPara4691">0,00</flowPara></flowRoot>    <text
       xml:space="preserve"
       style="font-style:normal;font-weight:normal;font-size:1.41111112px;line-height:1.25;font-family:sans-serif;letter-spacing:0px;word-spacing:0px;fill:#000000;fill-opacity:1;stroke:none;stroke-width:0.26458332"
       x="3.6852677"
       y="18.809523"
       id="text4719"><tspan
         sodipodi:role="line"
         id="tspan4717"
         x="3.6852677"
         y="18.809523"
         style="stroke-width:0.26458332">0,05</tspan></text>
    <text
       xml:space="preserve"
       style="font-style:normal;font-weight:normal;font-size:1.41111112px;line-height:1.25;font-family:sans-serif;letter-spacing:0px;word-spacing:0px;fill:#000000;fill-opacity:1;stroke:none;stroke-width:0.26458332"
       x="3.827009"
       y="30.90476"
       id="text4723"><tspan
         sodipodi:role="line"
         id="tspan4721"
         x="3.827009"
         y="30.90476"
         style="stroke-width:0.26458332">0,10</tspan></text>
    <text
       xml:space="preserve"
       style="font-style:normal;font-weight:normal;font-size:1.41111112px;line-height:1.25;font-family:sans-serif;letter-spacing:0px;word-spacing:0px;fill:#000000;fill-opacity:1;stroke:none;stroke-width:0.26458332"
       x="3.5907741"
       y="42.622021"
       id="text4727"><tspan
         sodipodi:role="line"
         id="tspan4725"
         x="3.5907741"
         y="42.622021"
         style="stroke-width:0.26458332">0,15</tspan></text>
    <text
       xml:space="preserve"
       style="font-style:normal;font-weight:normal;font-size:1.41111112px;line-height:1.25;font-family:sans-serif;letter-spacing:0px;word-spacing:0px;fill:#000000;fill-opacity:1;stroke:none;stroke-width:0.26458332"
       x="3.7797618"
       y="54.57552"
       id="text4731"><tspan
         sodipodi:role="line"
         id="tspan4729"
         x="3.7797618"
         y="54.57552"
         style="stroke-width:0.26458332">0,20</tspan></text>
    <path
       transform="translate(17.931472,-0.38208099)"
       sodipodi:type="inkscape:offset"
       inkscape:radius="0"
       inkscape:original="M 7.78125 2.0429688 L 7.78125 4.5429688 L 2.78125 4.5429688 L 2.78125 9.5429688 L 7.78125 9.5429688 L 7.78125 12.042969 L 17.78125 12.042969 L 17.78125 9.5429688 L 12.78125 9.5429688 L 12.78125 4.5429688 L 17.78125 4.5429688 L 17.78125 2.0429688 L 7.78125 2.0429688 z M 10.28125 5.5429688 C 11.03125 5.5429688 11.78125 6.0429688 11.78125 7.0429688 C 11.78125 9.0429688 8.78125 9.0429688 8.78125 7.0429688 C 8.78125 6.0429688 9.5312501 5.5429688 10.28125 5.5429688 z "
       style="fill:none;fill-opacity:1;fill-rule:evenodd;stroke:#ff0000;stroke-width:0.02645833;stroke-linecap:round;stroke-miterlimit:4;stroke-dasharray:none;stroke-opacity:1"
       id="path856-2"
       d="m 7.78125,2.0429688 v 2.5 h -5 v 5 h 5 v 2.5000002 h 10 V 9.5429688 h -5 v -5 h 5 v -2.5 z m 2.5,3.5 c 0.75,0 1.5,0.5 1.5,1.5 0,2 -3,2 -3,0 0,-1 0.7500001,-1.5 1.5,-1.5 z" />
    <path
       transform="translate(17.806464,11.213737)"
       sodipodi:type="inkscape:offset"
       inkscape:radius="0.050000001"
       inkscape:original="M 7.78125 2.0429688 L 7.78125 4.5429688 L 2.78125 4.5429688 L 2.78125 9.5429688 L 7.78125 9.5429688 L 7.78125 12.042969 L 17.78125 12.042969 L 17.78125 9.5429688 L 12.78125 9.5429688 L 12.78125 4.5429688 L 17.78125 4.5429688 L 17.78125 2.0429688 L 7.78125 2.0429688 z M 10.28125 5.5429688 C 11.03125 5.5429688 11.78125 6.0429688 11.78125 7.0429688 C 11.78125 9.0429688 8.78125 9.0429688 8.78125 7.0429688 C 8.78125 6.0429688 9.5312501 5.5429688 10.28125 5.5429688 z "
       style="fill:none;fill-opacity:1;fill-rule:evenodd;stroke:#ff0000;stroke-width:0.02645833;stroke-linecap:round;stroke-miterlimit:4;stroke-dasharray:none;stroke-opacity:1"
       id="path856-9-5"
       d="m 7.78125,1.9921875 a 0.050005,0.050005 0 0 0 -0.050781,0.050781 V 4.4921875 H 2.78125 a 0.050005,0.050005 0 0 0 -0.050781,0.050781 v 5 A 0.050005,0.050005 0 0 0 2.78125,9.59375 h 4.9492188 v 2.449219 a 0.050005,0.050005 0 0 0 0.050781,0.05078 h 10 a 0.050005,0.050005 0 0 0 0.05078,-0.05078 V 9.5429688 A 0.050005,0.050005 0 0 0 17.78125,9.4921875 H 12.832031 V 4.59375 h 4.949219 a 0.050005,0.050005 0 0 0 0.05078,-0.050781 v -2.5 a 0.050005,0.050005 0 0 0 -0.05078,-0.050781 z m 2.5,3.6015625 c 0.363889,0 0.727106,0.1204918 0.998047,0.3613281 0.270941,0.2408364 0.451172,0.6003907 0.451172,1.0878907 0,0.4874999 -0.180231,0.8470542 -0.451172,1.0878906 -0.270941,0.2408363 -0.634158,0.3613281 -0.998047,0.3613281 -0.3638889,0 -0.727106,-0.1204918 -0.9980469,-0.3613281 C 9.0122622,7.890023 8.8320313,7.5304687 8.8320312,7.0429688 c 0,-0.4875 0.180231,-0.8470543 0.4511719,-1.0878907 C 9.554144,5.7142418 9.9173612,5.59375 10.28125,5.59375 Z" />
    <path
       transform="translate(17.806464,23.10723)"
       sodipodi:type="inkscape:offset"
       inkscape:radius="0.1"
       inkscape:original="M 7.78125 2.0429688 L 7.78125 4.5429688 L 2.78125 4.5429688 L 2.78125 9.5429688 L 7.78125 9.5429688 L 7.78125 12.042969 L 17.78125 12.042969 L 17.78125 9.5429688 L 12.78125 9.5429688 L 12.78125 4.5429688 L 17.78125 4.5429688 L 17.78125 2.0429688 L 7.78125 2.0429688 z M 10.28125 5.5429688 C 11.03125 5.5429688 11.78125 6.0429688 11.78125 7.0429688 C 11.78125 9.0429688 8.78125 9.0429688 8.78125 7.0429688 C 8.78125 6.0429688 9.5312501 5.5429688 10.28125 5.5429688 z "
       style="fill:none;fill-opacity:1;fill-rule:evenodd;stroke:#ff0000;stroke-width:0.02645833;stroke-linecap:round;stroke-miterlimit:4;stroke-dasharray:none;stroke-opacity:1"
       id="path856-9-6-4"
       d="m 7.7714844,1.9433594 a 0.10001,0.10001 0 0 0 -0.089844,0.099609 V 4.4433594 H 2.78125 a 0.10001,0.10001 0 0 0 -0.099609,0.099609 v 5 a 0.10001,0.10001 0 0 0 0.099609,0.099609 h 4.9003906 v 2.4003909 a 0.10001,0.10001 0 0 0 0.099609,0.09961 h 10 a 0.10001,0.10001 0 0 0 0.09961,-0.09961 V 9.5429688 A 0.10001,0.10001 0 0 0 17.78125,9.4433594 H 12.880859 V 4.6425781 h 4.900391 a 0.10001,0.10001 0 0 0 0.09961,-0.099609 v -2.5 a 0.10001,0.10001 0 0 0 -0.09961,-0.099609 h -10 a 0.10001,0.10001 0 0 0 -0.00977,0 z M 10.28125,5.6425781 c 0.352778,0 0.704212,0.1179367 0.964844,0.3496094 0.260632,0.2316727 0.435547,0.5757813 0.435547,1.0507813 0,0.4749999 -0.174915,0.8191085 -0.435547,1.0507812 C 10.985462,8.3254227 10.634028,8.4433594 10.28125,8.4433594 9.9284722,8.4433594 9.5770381,8.3254227 9.3164062,8.09375 9.0557744,7.8620773 8.8808594,7.5179687 8.8808594,7.0429688 c 0,-0.475 0.174915,-0.8191086 0.4355468,-1.0507813 C 9.5770381,5.7605148 9.9284723,5.6425781 10.28125,5.6425781 Z" />
    <path
       transform="translate(17.873281,34.867089)"
       sodipodi:type="inkscape:offset"
       inkscape:radius="0.15000001"
       inkscape:original="M 7.78125 2.0429688 L 7.78125 4.5429688 L 2.78125 4.5429688 L 2.78125 9.5429688 L 7.78125 9.5429688 L 7.78125 12.042969 L 17.78125 12.042969 L 17.78125 9.5429688 L 12.78125 9.5429688 L 12.78125 4.5429688 L 17.78125 4.5429688 L 17.78125 2.0429688 L 7.78125 2.0429688 z M 10.28125 5.5429688 C 11.03125 5.5429688 11.78125 6.0429688 11.78125 7.0429688 C 11.78125 9.0429688 8.78125 9.0429688 8.78125 7.0429688 C 8.78125 6.0429688 9.5312501 5.5429688 10.28125 5.5429688 z "
       style="fill:none;fill-opacity:1;fill-rule:evenodd;stroke:#ff0000;stroke-width:0.02645833;stroke-linecap:round;stroke-miterlimit:4;stroke-dasharray:none;stroke-opacity:1"
       id="path856-9-6-0-8"
       d="M 7.78125,1.8925781 A 0.15001501,0.15001501 0 0 0 7.6308594,2.0429688 V 4.3925781 H 2.78125 A 0.15001501,0.15001501 0 0 0 2.6308594,4.5429688 v 5 A 0.15001501,0.15001501 0 0 0 2.78125,9.6933594 h 4.8496094 v 2.3496096 a 0.15001501,0.15001501 0 0 0 0.1503906,0.15039 h 10 a 0.15001501,0.15001501 0 0 0 0.150391,-0.15039 V 9.5429688 A 0.15001501,0.15001501 0 0 0 17.78125,9.3925781 H 12.931641 V 4.6933594 h 4.849609 a 0.15001501,0.15001501 0 0 0 0.150391,-0.1503906 v -2.5 A 0.15001501,0.15001501 0 0 0 17.78125,1.8925781 Z m 2.5,3.8007813 c 0.341667,0 0.681318,0.1134284 0.931641,0.3359375 0.250322,0.2225091 0.417968,0.5511719 0.417968,1.0136719 0,0.4624999 -0.167646,0.7911627 -0.417968,1.0136718 -0.250323,0.2225091 -0.589974,0.3359375 -0.931641,0.3359375 -0.3416667,0 -0.6813179,-0.1134284 -0.9316406,-0.3359375 C 9.0992867,7.8341315 8.9316406,7.5054687 8.9316406,7.0429688 c 0,-0.4625 0.167646,-0.7911628 0.4179688,-1.0136719 C 9.5999321,5.8067878 9.9395834,5.6933594 10.28125,5.6933594 Z" />
    <path
       transform="translate(17.739647,46.894216)"
       sodipodi:type="inkscape:offset"
       inkscape:radius="0.2"
       inkscape:original="M 7.78125 2.0429688 L 7.78125 4.5429688 L 2.78125 4.5429688 L 2.78125 9.5429688 L 7.78125 9.5429688 L 7.78125 12.042969 L 17.78125 12.042969 L 17.78125 9.5429688 L 12.78125 9.5429688 L 12.78125 4.5429688 L 17.78125 4.5429688 L 17.78125 2.0429688 L 7.78125 2.0429688 z M 10.28125 5.5429688 C 11.03125 5.5429688 11.78125 6.0429688 11.78125 7.0429688 C 11.78125 9.0429688 8.78125 9.0429688 8.78125 7.0429688 C 8.78125 6.0429688 9.5312501 5.5429688 10.28125 5.5429688 z "
       style="fill:none;fill-opacity:1;fill-rule:evenodd;stroke:#ff0000;stroke-width:0.02645833;stroke-linecap:round;stroke-miterlimit:4;stroke-dasharray:none;stroke-opacity:1"
       id="path856-9-6-0-7-6"
       d="M 7.7617188,1.84375 A 0.20002,0.20002 0 0 0 7.5820312,2.0429688 V 4.34375 H 2.78125 A 0.20002,0.20002 0 0 0 2.5820312,4.5429688 v 5 A 0.20002,0.20002 0 0 0 2.78125,9.7421875 H 7.5820312 V 12.042969 A 0.20002,0.20002 0 0 0 7.78125,12.242188 h 10 a 0.20002,0.20002 0 0 0 0.199219,-0.199219 V 9.5429688 A 0.20002,0.20002 0 0 0 17.78125,9.34375 H 12.980469 V 4.7421875 h 4.800781 a 0.20002,0.20002 0 0 0 0.199219,-0.1992187 v -2.5 A 0.20002,0.20002 0 0 0 17.78125,1.84375 h -10 a 0.20002,0.20002 0 0 0 -0.019531,0 z M 10.28125,5.7421875 c 0.330556,0 0.658424,0.1128264 0.898438,0.3261719 0.240013,0.2133454 0.402343,0.5246094 0.402343,0.9746094 0,0.4499999 -0.16233,0.7612639 -0.402343,0.9746093 C 10.939674,8.2309236 10.611806,8.34375 10.28125,8.34375 9.9506944,8.34375 9.6228261,8.2309236 9.3828125,8.0175781 9.1427989,7.8042327 8.9804687,7.4929687 8.9804688,7.0429688 c 0,-0.45 0.1623301,-0.761264 0.4023437,-0.9746094 C 9.6228261,5.8550139 9.9506945,5.7421875 10.28125,5.7421875 Z" />
    <flowRoot
       xml:space="preserve"
       id="flowRoot4685-7"
       style="font-style:normal;font-weight:normal;font-size:5.33333349px;line-height:1.25;font-family:sans-serif;letter-spacing:0px;word-spacing:0px;fill:#000000;fill-opacity:1;stroke:none"
       transform="matrix(0.26458333,0,0,0.26458333,-2.99896,2.169259)"><flowRegion
         id="flowRegion4687-7"><rect
           id="rect4689-9"
           width="33.214287"
           height="30"
           x="94.64286"
           y="14.305398" /></flowRegion><flowPara
         id="flowPara4691-1">0,00</flowPara></flowRoot>    <text
       xml:space="preserve"
       style="font-style:normal;font-weight:normal;font-size:1.41111112px;line-height:1.25;font-family:sans-serif;letter-spacing:0px;word-spacing:0px;fill:#000000;fill-opacity:1;stroke:none;stroke-width:0.26458332"
       x="21.616739"
       y="18.427443"
       id="text4719-6"><tspan
         sodipodi:role="line"
         id="tspan4717-9"
         x="21.616739"
         y="18.427443"
         style="stroke-width:0.26458332">0,05</tspan></text>
    <text
       xml:space="preserve"
       style="font-style:normal;font-weight:normal;font-size:1.41111112px;line-height:1.25;font-family:sans-serif;letter-spacing:0px;word-spacing:0px;fill:#000000;fill-opacity:1;stroke:none;stroke-width:0.26458332"
       x="21.75848"
       y="30.522676"
       id="text4723-4"><tspan
         sodipodi:role="line"
         id="tspan4721-5"
         x="21.75848"
         y="30.522676"
         style="stroke-width:0.26458332">0,10</tspan></text>
    <text
       xml:space="preserve"
       style="font-style:normal;font-weight:normal;font-size:1.41111112px;line-height:1.25;font-family:sans-serif;letter-spacing:0px;word-spacing:0px;fill:#000000;fill-opacity:1;stroke:none;stroke-width:0.26458332"
       x="21.522245"
       y="42.239941"
       id="text4727-9"><tspan
         sodipodi:role="line"
         id="tspan4725-2"
         x="21.522245"
         y="42.239941"
         style="stroke-width:0.26458332">0,15</tspan></text>
    <text
       xml:space="preserve"
       style="font-style:normal;font-weight:normal;font-size:1.41111112px;line-height:1.25;font-family:sans-serif;letter-spacing:0px;word-spacing:0px;fill:#000000;fill-opacity:1;stroke:none;stroke-width:0.26458332"
       x="21.711233"
       y="54.193439"
       id="text4731-2"><tspan
         sodipodi:role="line"
         id="tspan4729-9"
         x="21.711233"
         y="54.193439"
         style="stroke-width:0.26458332">0,20</tspan></text>
  </g>
</svg>
